<?xml version="1.0" standalone="no"?><!-- Generator: Gravit.io --><svg xmlns="http://www.w3.org/2000/svg" xmlns:xlink="http://www.w3.org/1999/xlink" style="isolation:isolate" viewBox="0 0 40 40" width="40" height="40"><defs><clipPath id="_clipPath_GRS9wz8k90q56Hroae6uAqNCL0Py5l0m"><rect width="40" height="40"/></clipPath></defs><g clip-path="url(#_clipPath_GRS9wz8k90q56Hroae6uAqNCL0Py5l0m)"><path d=" M 19.84 20.214 L 19.84 20.214 L 19.84 20.214 Q 18.508 20.214 17.392 19.89 L 17.392 19.89 L 17.392 19.89 Q 16.42 21.114 16.42 21.438 L 16.42 21.438 L 16.42 21.438 Q 16.42 21.762 16.708 22.014 L 16.708 22.014 L 16.708 22.014 Q 16.996 22.266 17.662 22.41 L 17.662 22.41 L 17.662 22.41 Q 18.328 22.554 18.922 22.626 L 18.922 22.626 L 18.922 22.626 Q 19.516 22.698 20.56 22.806 L 20.56 22.806 L 20.56 22.806 Q 25.096 23.274 26.464 23.742 L 26.464 23.742 L 26.464 23.742 Q 28.084 24.246 28.084 27.09 L 28.084 27.09 L 28.084 27.09 Q 28.084 29.934 25.258 31.842 L 25.258 31.842 L 25.258 31.842 Q 22.432 33.75 18.94 33.75 L 18.94 33.75 L 18.94 33.75 Q 11.812 33.75 11.812 28.53 L 11.812 28.53 L 11.812 28.53 Q 11.812 27.414 15.16 24.93 L 15.16 24.93 L 15.16 24.93 Q 13.54 24.066 13.54 22.266 L 13.54 22.266 L 13.54 22.266 Q 13.54 21.51 16.096 19.35 L 16.096 19.35 L 16.096 19.35 Q 12.892 17.694 12.892 13.698 L 12.892 13.698 L 12.892 13.698 Q 12.892 10.674 14.836 8.928 L 14.836 8.928 L 14.836 8.928 Q 16.78 7.182 19.84 7.182 L 19.84 7.182 L 19.84 7.182 Q 21.82 7.182 23.44 7.974 L 23.44 7.974 L 27.58 7.074 L 27.904 8.91 L 26.608 9.342 L 26.608 9.342 Q 26.392 9.414 25.708 9.918 L 25.708 9.918 L 25.708 9.918 Q 26.788 11.466 26.788 13.698 L 26.788 13.698 L 26.788 13.698 Q 26.788 16.722 24.844 18.468 L 24.844 18.468 L 24.844 18.468 Q 22.9 20.214 19.84 20.214 Z  M 16.024 13.698 L 16.024 13.698 L 16.024 13.698 Q 16.024 18.378 19.84 18.378 L 19.84 18.378 L 19.84 18.378 Q 23.656 18.378 23.656 13.698 L 23.656 13.698 L 23.656 13.698 Q 23.656 9.018 19.84 9.018 L 19.84 9.018 L 19.84 9.018 Q 16.024 9.018 16.024 13.698 Z  M 25.024 27.99 L 25.024 27.99 Q 25.024 27.162 24.754 26.856 L 24.754 26.856 L 24.754 26.856 Q 24.484 26.55 23.602 26.37 L 23.602 26.37 L 23.602 26.37 Q 22.72 26.19 19.93 25.866 L 19.93 25.866 L 19.93 25.866 Q 17.14 25.542 16.492 25.362 L 16.492 25.362 L 16.492 25.362 Q 14.908 27.414 14.908 27.882 L 14.908 27.882 L 14.908 27.882 Q 14.908 30.042 16.186 30.87 L 16.186 30.87 L 16.186 30.87 Q 17.464 31.698 19.732 31.698 L 19.732 31.698 L 19.732 31.698 Q 22 31.698 23.512 30.726 L 23.512 30.726 L 23.512 30.726 Q 25.024 29.754 25.024 27.99 L 25.024 27.99 Z " fill-rule="evenodd" fill="rgb(255,0,0)"/><path d=" M 20 0.42 C 9.065 0.42 0.157 9.292 0.157 20.203 L 0.157 21.683 L 3.21 21.683 L 3.21 20.206 C 3.21 10.95 10.71 3.476 20 3.476 C 24.985 3.476 29.433 5.656 32.498 9.09 L 29.049 12.525 L 39.843 12.525 L 39.843 1.77 L 34.653 6.932 C 30.908 2.789 25.585 0.423 20 0.42 Z  M 36.79 18.63 L 36.79 20.157 C 36.79 29.446 29.29 36.947 20 36.947 C 15.2 36.946 10.634 34.877 7.468 31.269 L 10.948 27.789 L 0.157 27.789 L 0.157 38.58 L 5.31 33.43 C 9.053 37.605 14.393 39.993 20 40 C 30.947 40 39.843 31.104 39.843 20.157 L 39.843 18.63 L 36.79 18.63 Z " fill="rgb(255,0,0)"/></g></svg>