<?xml version="1.0" standalone="no"?><!-- Generator: Gravit.io --><svg xmlns="http://www.w3.org/2000/svg" xmlns:xlink="http://www.w3.org/1999/xlink" style="isolation:isolate" viewBox="0 0 60 60" width="60" height="60"><defs><clipPath id="_clipPath_rchIZbUnVkMSZqDYprUp4dGMYgUij1ez"><rect width="60" height="60"/></clipPath></defs><g clip-path="url(#_clipPath_rchIZbUnVkMSZqDYprUp4dGMYgUij1ez)"><defs><filter id="NKmVSIcglqjCwFDVfrhZTMzTyxQDeUaF" x="-200%" y="-200%" width="400%" height="400%"><feOffset xmlns="http://www.w3.org/2000/svg" in="SourceAlpha" result="offOut" dx="1" dy="1"/><feGaussianBlur xmlns="http://www.w3.org/2000/svg" in="offOut" result="blurOut" stdDeviation="1"/><feComponentTransfer xmlns="http://www.w3.org/2000/svg" in="blurOut" result="opacOut"><feFuncA xmlns="http://www.w3.org/2000/svg" type="table" tableValues="0 0.5"/></feComponentTransfer><feBlend xmlns="http://www.w3.org/2000/svg" in="SourceGraphic" in2="opacOut" mode="normal"/></filter></defs><g filter="url(#NKmVSIcglqjCwFDVfrhZTMzTyxQDeUaF)"><path d=" M 30 0 C 27.706 0.001 25.586 1.225 24.44 3.213 C 23.293 5.2 23.294 7.648 24.442 9.634 C 25.59 11.621 27.71 12.844 30.004 12.843 C 33.551 12.842 36.425 9.966 36.424 6.42 C 36.423 2.873 33.547 -0.001 30 0 L 30 0 Z  M 27.593 15.045 C 26.675 15.095 25.761 15.184 24.851 15.313 C 24.8 15.321 24.759 15.304 24.717 15.313 C 21.291 15.313 19.301 18.082 19.301 19.259 L 19.301 32.098 C 19.301 33.275 20.264 34.238 21.441 34.238 L 23.58 34.238 L 23.58 47.077 C 23.58 48.254 24.543 49.217 25.72 49.217 L 34.28 49.217 C 35.457 49.217 36.42 48.254 36.42 47.077 L 36.42 34.238 L 38.559 34.238 C 39.736 34.238 40.699 33.275 40.699 32.098 L 40.699 19.259 C 40.699 18.189 39.028 15.865 36.152 15.448 C 35.934 15.405 35.574 15.356 35.283 15.313 L 35.217 15.313 C 33.903 15.137 31.982 15.045 30 15.045 C 29.18 15.045 28.369 15.013 27.593 15.045 Z  M 40.432 39.32 C 39.251 39.303 38.279 40.245 38.258 41.426 C 38.242 42.607 39.184 43.579 40.365 43.6 C 43.417 44.135 45.891 44.937 47.453 45.74 C 48.238 46.142 48.807 46.533 49.058 46.809 C 49.308 47.085 49.259 47.126 49.259 47.077 C 49.259 47.002 49.242 47.261 48.456 47.813 C 47.671 48.365 46.299 49.016 44.51 49.551 C 40.924 50.629 35.735 51.357 30 51.357 C 24.265 51.357 19.076 50.629 15.49 49.551 C 13.701 49.016 12.329 48.365 11.544 47.813 C 10.758 47.261 10.741 47 10.741 47.077 C 10.741 47.126 10.692 47.085 10.942 46.809 C 11.193 46.542 11.702 46.14 12.479 45.74 C 14.035 44.946 16.534 44.201 19.568 43.666 C 20.745 43.499 21.575 42.403 21.408 41.227 C 21.241 40.045 20.149 39.222 18.967 39.386 C 18.92 39.406 18.875 39.429 18.832 39.455 C 15.515 40.039 12.706 40.824 10.54 41.928 C 9.462 42.481 8.55 43.122 7.799 43.933 C 7.046 44.747 6.462 45.838 6.462 47.077 C 6.462 48.924 7.69 50.312 9.07 51.29 C 10.448 52.268 12.205 53.071 14.285 53.698 C 18.449 54.943 23.914 55.636 30 55.636 C 36.086 55.636 41.551 54.943 45.715 53.698 C 47.795 53.071 49.552 52.268 50.93 51.29 C 52.31 50.312 53.538 48.924 53.538 47.077 C 53.538 45.84 52.954 44.753 52.201 43.933 C 51.448 43.114 50.547 42.478 49.46 41.928 C 47.286 40.816 44.435 39.973 41.099 39.386 C 40.882 39.327 40.657 39.304 40.432 39.32 Z " fill="rgb(74,134,232)"/></g></g></svg>