<?xml version="1.0" standalone="no"?><!-- Generator: Gravit.io --><svg xmlns="http://www.w3.org/2000/svg" xmlns:xlink="http://www.w3.org/1999/xlink" style="isolation:isolate" viewBox="0 0 40 40" width="40" height="40"><defs><clipPath id="_clipPath_6ECddbY2tAM37HCGins8TwuNt8NrbAiA"><rect width="40" height="40"/></clipPath></defs><g clip-path="url(#_clipPath_6ECddbY2tAM37HCGins8TwuNt8NrbAiA)"><g id="Group" filter="url(#vr2FS53AJqnKuo1CFcyOeCtZnyrQd1Kt)"><path d=" M 28.637 13.715 C 28.251 13.587 28.102 13.731 28.2 14.063 L 13.405 25.019 C 12.573 25.553 12.084 24.939 12.781 24.237 L 26.761 12.258 C 27.075 12.341 27.207 12.254 27.164 11.912 L 34.051 6 C 35.383 6.133 36.005 6.929 35.921 8.346 L 28.637 13.715 Z " fill="rgb(255,153,0)" vector-effect="non-scaling-stroke" stroke-width="1" stroke="rgb(255,255,255)" stroke-opacity="0.2" stroke-linejoin="miter" stroke-linecap="square" stroke-miterlimit="3"/><path d=" M 13.8 11.822 C 13.766 12.228 13.941 12.339 14.241 12.166 L 28.36 23.98 C 29.075 24.663 28.593 25.283 27.746 24.769 L 12.824 13.988 C 12.831 13.663 12.715 13.556 12.393 13.678 L 5.031 8.368 C 4.848 7.042 5.476 6.251 6.873 6 L 13.8 11.822 Z " fill="rgb(255,255,0)" vector-effect="non-scaling-stroke" stroke-width="1" stroke="rgb(255,255,255)" stroke-opacity="0.2" stroke-linejoin="miter" stroke-linecap="square" stroke-miterlimit="3"/><path d=" M 5.689 27 L 35.232 27 C 36.035 27 36.141 27.357 35.47 27.797 L 27.217 33.203 C 26.545 33.643 25.348 34 24.545 34 L 18.053 34 L 16.455 34 C 15.652 34 14.453 33.645 13.78 33.207 L 5.453 27.793 C 4.78 27.355 4.886 27 5.689 27 Z " fill="rgb(255,153,0)" vector-effect="non-scaling-stroke" stroke-width="1" stroke="rgb(255,255,255)" stroke-opacity="0.2" stroke-linejoin="miter" stroke-linecap="square" stroke-miterlimit="3"/></g><defs><filter id="vr2FS53AJqnKuo1CFcyOeCtZnyrQd1Kt" x="-200%" y="-200%" width="400%" height="400%"><feOffset xmlns="http://www.w3.org/2000/svg" in="SourceAlpha" result="offOut" dx="2" dy="1"/><feGaussianBlur xmlns="http://www.w3.org/2000/svg" in="offOut" result="blurOut" stdDeviation="1.5"/><feComponentTransfer xmlns="http://www.w3.org/2000/svg" in="blurOut" result="opacOut"><feFuncA xmlns="http://www.w3.org/2000/svg" type="table" tableValues="0 0.5"/></feComponentTransfer><feBlend xmlns="http://www.w3.org/2000/svg" in="SourceGraphic" in2="opacOut" mode="normal"/></filter></defs></g></svg>